<svg width="14" height="19" viewBox="0 0 14 19" fill="none" xmlns="http://www.w3.org/2000/svg">
<path d="M1.16659 18.3333C0.706348 18.3333 0.327874 17.9587 0.385246 17.5021C0.568882 16.0404 1.23317 14.6719 2.28587 13.6192C3.53612 12.369 5.23181 11.6666 6.99992 11.6666C8.76803 11.6666 10.4637 12.369 11.714 13.6192C12.7667 14.6719 13.431 16.0404 13.6146 17.5021C13.672 17.9587 13.2935 18.3333 12.8333 18.3333C12.373 18.3333 12.007 17.9576 11.9306 17.5037C11.7593 16.4854 11.2753 15.5376 10.5355 14.7977C9.59777 13.86 8.326 13.3333 6.99992 13.3333C5.67384 13.3333 4.40207 13.86 3.46438 14.7977C2.72455 15.5375 2.24051 16.4854 2.06919 17.5037C1.99283 17.9576 1.62682 18.3333 1.16659 18.3333ZM6.99992 10.8333C4.23742 10.8333 1.99992 8.59575 1.99992 5.83325C1.99992 3.07075 4.23742 0.833252 6.99992 0.833252C9.76242 0.833252 11.9999 3.07075 11.9999 5.83325C11.9999 8.59575 9.76242 10.8333 6.99992 10.8333ZM6.99992 9.16658C8.84158 9.16658 10.3333 7.67492 10.3333 5.83325C10.3333 3.99159 8.84158 2.49992 6.99992 2.49992C5.15825 2.49992 3.66658 3.99159 3.66658 5.83325C3.66658 7.67492 5.15825 9.16658 6.99992 9.16658Z" fill="#3772FF"/>
</svg>
