<svg width="27" height="27" viewBox="0 0 27 27" fill="none" xmlns="http://www.w3.org/2000/svg">
<circle cx="24.5" cy="2.5" r="2.5" fill="#FD0707"/>
<path d="M23.8337 21.6667C23.8337 22.219 23.3859 22.6667 22.8337 22.6667H3.16699C2.61471 22.6667 2.16699 22.219 2.16699 21.6667V21.5001C2.16699 20.9478 2.61471 20.5001 3.16699 20.5001H3.25033V12.9503C3.25033 7.54666 7.61616 3.16675 13.0003 3.16675C18.3845 3.16675 22.7503 7.54666 22.7503 12.9503V20.5001H22.8337C23.3859 20.5001 23.8337 20.9478 23.8337 21.5001V21.6667ZM5.41699 20.5001H20.5837V12.9503C20.5837 8.74375 17.1885 5.33341 13.0003 5.33341C8.81216 5.33341 5.41699 8.74375 5.41699 12.9503V20.5001ZM10.292 23.7501H15.7087C15.7087 24.4684 15.4233 25.1573 14.9154 25.6652C14.4075 26.1731 13.7186 26.4584 13.0003 26.4584C12.282 26.4584 11.5932 26.1731 11.0852 25.6652C10.5773 25.1573 10.292 24.4684 10.292 23.7501Z" fill="#020202"/>
</svg>
