<svg width="23" height="16" viewBox="0 0 23 16" fill="none" xmlns="http://www.w3.org/2000/svg">
<path d="M13.9999 15.0007C13.4476 15.0003 13.0002 14.5514 13.0006 13.9991C13.001 13.4471 13.4486 12.9989 14.0006 12.9989H15.001C15.6595 13.0017 16.312 12.8746 16.9212 12.6246C17.5303 12.3746 18.0841 12.0068 18.5507 11.5422C19.0173 11.0776 19.3876 10.5254 19.6402 9.91739C19.8929 9.30933 20.0229 8.65737 20.0229 7.99891C20.0229 7.34046 19.8929 6.68849 19.6402 6.08044C19.3876 5.47239 19.0173 4.92022 18.5507 4.45565C18.0841 3.99107 17.5303 3.62324 16.9212 3.37326C16.312 3.12328 15.6595 2.99608 15.001 2.99896L14.0003 2.99932C13.4482 2.99951 13.0005 2.5521 13.0003 2C13.0001 1.44748 13.4481 0.99958 14.0006 0.999971L15.001 1.00068C16.8576 1.00068 18.6382 1.73821 19.951 3.05103C21.2639 4.36386 22.0014 6.14442 22.0014 8.00104C22.0014 9.85765 21.2639 11.6382 19.951 12.951C18.6382 14.2639 16.8576 15.0014 15.001 15.0014L13.9999 15.0007ZM8.99981 13.9992C9.0002 14.5518 8.55231 14.9998 7.99979 14.9996L7.00012 14.9993C5.14351 14.9993 3.36294 14.2617 2.05012 12.9489C0.737294 11.6361 -0.000241851 9.85552 -0.000241346 7.99891C-0.00024084 6.1423 0.737294 4.36174 2.05012 3.04891C3.36294 1.73609 5.14351 0.998557 7.00012 0.998557L8.00017 0.99891C8.55259 0.999105 9.0002 1.44793 8.99981 2.00035C8.99942 2.55236 8.55182 3.00038 7.99981 3.00038L6.99941 3.00038C6.34096 2.99749 5.68843 3.12469 5.07928 3.37467C4.47012 3.62465 3.91634 3.99249 3.44973 4.45706C2.98311 4.92164 2.61286 5.4738 2.36021 6.08185C2.10757 6.68991 1.97751 7.34188 1.97751 8.00033C1.97751 8.65878 2.10757 9.31075 2.36021 9.9188C2.61286 10.5269 2.98311 11.079 3.44973 11.5436C3.91634 12.0082 4.47012 12.376 5.07928 12.626C5.68843 12.876 6.34096 13.0032 6.99941 13.0003L8.00014 13.0003C8.55197 13.0003 8.99942 13.4474 8.99981 13.9992ZM15.0002 6.99906C15.5525 6.99906 16.0002 7.4473 16.0002 7.99959C16.0002 8.5519 15.5524 9.00015 15.0001 9.00011L7.00055 8.99954C6.44843 8.9995 6.00082 8.55178 6.00062 7.99966C6.00043 7.44723 6.4482 6.99906 7.00062 6.99906L15.0002 6.99906Z" fill="#292929"/>
</svg>
