<svg width="23" height="16" viewBox="0 0 23 16" fill="none" xmlns="http://www.w3.org/2000/svg">
<path d="M13.9999 15.0007C13.4476 15.0003 13.0002 14.5513 13.0006 13.999C13.001 13.447 13.4486 12.9988 14.0006 12.9988H15.001C15.6595 13.0017 16.312 12.8745 16.9212 12.6245C17.5303 12.3746 18.0841 12.0067 18.5507 11.5422C19.0173 11.0776 19.3876 10.5254 19.6402 9.91736C19.8929 9.3093 20.0229 8.65733 20.0229 7.99888C20.0229 7.34043 19.8929 6.68846 19.6402 6.08041C19.3876 5.47236 19.0173 4.92019 18.5507 4.45562C18.0841 3.99104 17.5303 3.6232 16.9212 3.37323C16.312 3.12325 15.6595 2.99605 15.001 2.99893L14.0003 2.99928C13.4482 2.99948 13.0005 2.55207 13.0003 1.99997C13.0001 1.44745 13.4481 0.99955 14.0006 0.999941L15.001 1.00065C16.8576 1.00065 18.6382 1.73818 19.951 3.051C21.2639 4.36383 22.0014 6.14439 22.0014 8.001C22.0014 9.85762 21.2639 11.6382 19.951 12.951C18.6382 14.2638 16.8576 15.0014 15.001 15.0014L13.9999 15.0007ZM8.99981 13.9992C9.0002 14.5517 8.55231 14.9998 7.99979 14.9996L7.00012 14.9992C5.14351 14.9992 3.36294 14.2617 2.05012 12.9489C0.737294 11.6361 -0.000241851 9.85549 -0.000241346 7.99888C-0.00024084 6.14227 0.737294 4.3617 2.05012 3.04888C3.36294 1.73606 5.14351 0.998527 7.00012 0.998526L8.00017 0.99888C8.55259 0.999075 9.0002 1.4479 8.99981 2.00032C8.99942 2.55233 8.55182 3.00035 7.99981 3.00035L6.99941 3.00034C6.34096 2.99746 5.68843 3.12466 5.07928 3.37464C4.47012 3.62462 3.91634 3.99245 3.44973 4.45703C2.98311 4.9216 2.61286 5.47377 2.36021 6.08182C2.10757 6.68988 1.97751 7.34185 1.97751 8.0003C1.97751 8.65875 2.10757 9.31072 2.36021 9.91877C2.61286 10.5268 2.98311 11.079 3.44973 11.5436C3.91634 12.0081 4.47012 12.376 5.07928 12.626C5.68843 12.8759 6.34096 13.0031 6.99941 13.0002L8.00014 13.0002C8.55197 13.0002 8.99942 13.4474 8.99981 13.9992ZM15.0002 6.99903C15.5525 6.99903 16.0002 7.44727 16.0002 7.99955C16.0002 8.55187 15.5524 9.00011 15.0001 9.00008L7.00055 8.99951C6.44843 8.99947 6.00082 8.55174 6.00062 7.99963C6.00043 7.4472 6.4482 6.99903 7.00062 6.99903L15.0002 6.99903Z" fill="#292929"/>
</svg>
