<svg width="122" height="19" viewBox="0 0 122 19" fill="none" xmlns="http://www.w3.org/2000/svg">
<path d="M13.328 6.576C13.328 7.552 13.104 8.448 12.656 9.264C12.208 10.064 11.52 10.712 10.592 11.208C9.664 11.704 8.512 11.952 7.136 11.952H4.592V18H0.488V1.152H7.136C8.48 1.152 9.616 1.384 10.544 1.848C11.472 2.312 12.168 2.952 12.632 3.768C13.096 4.584 13.328 5.52 13.328 6.576ZM6.824 8.688C7.608 8.688 8.192 8.504 8.576 8.136C8.96 7.768 9.152 7.248 9.152 6.576C9.152 5.904 8.96 5.384 8.576 5.016C8.192 4.648 7.608 4.464 6.824 4.464H4.592V8.688H6.824ZM19.5686 4.44V7.848H25.0646V11.016H19.5686V14.712H25.7846V18H15.4646V1.152H25.7846V4.44H19.5686ZM38.9369 15.024H32.6489L31.6409 18H27.3449L33.4409 1.152H38.1929L44.2889 18H39.9449L38.9369 15.024ZM37.8809 11.856L35.7929 5.688L33.7289 11.856H37.8809ZM55.9123 18L50.2483 10.56V18H46.1443V1.152H50.2483V8.544L55.8643 1.152H60.6883L54.1603 9.408L60.9283 18H55.9123ZM68.9746 18.168C67.7426 18.168 66.6386 17.968 65.6626 17.568C64.6866 17.168 63.9026 16.576 63.3106 15.792C62.7346 15.008 62.4306 14.064 62.3986 12.96H66.7666C66.8306 13.584 67.0466 14.064 67.4146 14.4C67.7826 14.72 68.2626 14.88 68.8546 14.88C69.4626 14.88 69.9426 14.744 70.2946 14.472C70.6466 14.184 70.8226 13.792 70.8226 13.296C70.8226 12.88 70.6786 12.536 70.3906 12.264C70.1186 11.992 69.7746 11.768 69.3586 11.592C68.9586 11.416 68.3826 11.216 67.6306 10.992C66.5426 10.656 65.6546 10.32 64.9666 9.984C64.2786 9.648 63.6866 9.152 63.1906 8.496C62.6946 7.84 62.4466 6.984 62.4466 5.928C62.4466 4.36 63.0146 3.136 64.1506 2.256C65.2866 1.36 66.7666 0.912 68.5906 0.912C70.4466 0.912 71.9426 1.36 73.0786 2.256C74.2146 3.136 74.8226 4.368 74.9026 5.952H70.4626C70.4306 5.408 70.2306 4.984 69.8626 4.68C69.4946 4.36 69.0226 4.2 68.4466 4.2C67.9506 4.2 67.5506 4.336 67.2466 4.608C66.9426 4.864 66.7906 5.24 66.7906 5.736C66.7906 6.28 67.0466 6.704 67.5586 7.008C68.0706 7.312 68.8706 7.64 69.9586 7.992C71.0466 8.36 71.9266 8.712 72.5986 9.048C73.2866 9.384 73.8786 9.872 74.3746 10.512C74.8706 11.152 75.1186 11.976 75.1186 12.984C75.1186 13.944 74.8706 14.816 74.3746 15.6C73.8946 16.384 73.1906 17.008 72.2626 17.472C71.3346 17.936 70.2386 18.168 68.9746 18.168ZM85.6123 18.168C84.0283 18.168 82.5723 17.8 81.2443 17.064C79.9323 16.328 78.8843 15.304 78.1003 13.992C77.3322 12.664 76.9482 11.176 76.9482 9.528C76.9482 7.88 77.3322 6.4 78.1003 5.088C78.8843 3.776 79.9323 2.752 81.2443 2.016C82.5723 1.28 84.0283 0.912 85.6123 0.912C87.1963 0.912 88.6443 1.28 89.9563 2.016C91.2843 2.752 92.3243 3.776 93.0763 5.088C93.8443 6.4 94.2283 7.88 94.2283 9.528C94.2283 11.176 93.8443 12.664 93.0763 13.992C92.3083 15.304 91.2683 16.328 89.9563 17.064C88.6443 17.8 87.1963 18.168 85.6123 18.168ZM85.6123 14.424C86.9563 14.424 88.0283 13.976 88.8282 13.08C89.6443 12.184 90.0523 11 90.0523 9.528C90.0523 8.04 89.6443 6.856 88.8282 5.976C88.0283 5.08 86.9563 4.632 85.6123 4.632C84.2523 4.632 83.1643 5.072 82.3483 5.952C81.5483 6.832 81.1483 8.024 81.1483 9.528C81.1483 11.016 81.5483 12.208 82.3483 13.104C83.1643 13.984 84.2523 14.424 85.6123 14.424ZM107.479 1.152V4.44H100.615V7.992H105.751V11.184H100.615V18H96.5114V1.152H107.479ZM121.756 1.152V4.44H117.292V18H113.188V4.44H108.724V1.152H121.756Z" fill="#1F6ED4"/>
</svg>
