<svg width="12" height="12" viewBox="0 0 12 12" fill="none" xmlns="http://www.w3.org/2000/svg">
<path d="M5.16675 5.16675V1.00008C5.16675 0.539844 5.53984 0.166748 6.00008 0.166748C6.46032 0.166748 6.83342 0.539844 6.83342 1.00008V5.16675H11.0001C11.4603 5.16675 11.8334 5.53984 11.8334 6.00008C11.8334 6.46032 11.4603 6.83342 11.0001 6.83342H6.83342V11.0001C6.83342 11.4603 6.46032 11.8334 6.00008 11.8334C5.53984 11.8334 5.16675 11.4603 5.16675 11.0001V6.83342H1.00008C0.539844 6.83342 0.166748 6.46032 0.166748 6.00008C0.166748 5.53984 0.539844 5.16675 1.00008 5.16675H5.16675Z" fill="white"/>
</svg>
