<svg width="22" height="16" viewBox="0 0 22 16" fill="none" xmlns="http://www.w3.org/2000/svg">
<path d="M10.4559 11H4.07982L2.11554 16H0L6.28571 0H8.25L14.5357 16H12.4202L10.4559 11ZM9.67018 9L7.26786 2.885L4.86554 9H9.67018ZM20.0357 8.535V8H22V16H20.0357V15.465C19.4385 15.8157 18.7611 16.0002 18.0716 16C17.3822 15.9998 16.7049 15.8148 16.1079 15.4637C15.5109 15.1125 15.0152 14.6076 14.6705 13.9996C14.3258 13.3916 14.1444 12.702 14.1444 12C14.1444 11.298 14.3258 10.6084 14.6705 10.0004C15.0152 9.3924 15.5109 8.88748 16.1079 8.53635C16.7049 8.18521 17.3822 8.00024 18.0716 8C18.7611 7.99976 19.4385 8.18428 20.0357 8.535ZM18.0714 14C18.5924 14 19.092 13.7893 19.4604 13.4142C19.8288 13.0391 20.0357 12.5304 20.0357 12C20.0357 11.4696 19.8288 10.9609 19.4604 10.5858C19.092 10.2107 18.5924 10 18.0714 10C17.5505 10 17.0508 10.2107 16.6825 10.5858C16.3141 10.9609 16.1071 11.4696 16.1071 12C16.1071 12.5304 16.3141 13.0391 16.6825 13.4142C17.0508 13.7893 17.5505 14 18.0714 14Z" fill="#292929"/>
</svg>
